<?xml version="1.0" encoding="UTF-8" standalone="no"?>
<!-- Created with Inkscape (http://www.inkscape.org/) -->

<svg
   version="1.1"
   id="svg58480"
   width="1200"
   height="1200"
   viewBox="0 0 1200 1200"
   sodipodi:docname="for-sale-vector-pd.svg"
   inkscape:version="1.2 (dc2aedaf03, 2022-05-15)"
   xmlns:inkscape="http://www.inkscape.org/namespaces/inkscape"
   xmlns:sodipodi="http://sodipodi.sourceforge.net/DTD/sodipodi-0.dtd"
   xmlns="http://www.w3.org/2000/svg"
   xmlns:svg="http://www.w3.org/2000/svg">
  <defs
     id="defs58484">
    <clipPath
       clipPathUnits="userSpaceOnUse"
       id="clipPath58496">
      <path
         d="M 0,900 H 900 V 0 H 0 Z"
         id="path58494" />
    </clipPath>
    <clipPath
       clipPathUnits="userSpaceOnUse"
       id="clipPath58508">
      <path
         d="m 420.375,479.872 c -24.821,0 -45.015,-20.197 -45.015,-45.018 v 0 -78.342 c 0,-24.822 20.194,-45.014 45.015,-45.014 v 0 h 78.343 c 24.822,0 45.015,20.192 45.015,45.014 v 0 78.342 c 0,24.821 -20.193,45.018 -45.015,45.018 v 0 z m -39.299,-123.36 v 78.342 c 0,21.672 17.63,39.301 39.299,39.301 v 0 h 78.343 c 21.67,0 39.299,-17.629 39.299,-39.301 v 0 -78.342 c 0,-21.668 -17.629,-39.299 -39.299,-39.299 v 0 h -78.343 c -21.669,0 -39.299,17.631 -39.299,39.299"
         id="path58506" />
    </clipPath>
    <radialGradient
       fx="0"
       fy="0"
       cx="0"
       cy="0"
       r="1"
       gradientUnits="userSpaceOnUse"
       gradientTransform="matrix(84.186645,0,0,-84.186645,459.54687,395.68481)"
       spreadMethod="pad"
       id="radialGradient58526">
      <stop
         style="stop-opacity:1;stop-color:#dce4f4"
         offset="0"
         id="stop58514" />
      <stop
         style="stop-opacity:1;stop-color:#dce4f4"
         offset="0.698864"
         id="stop58516" />
      <stop
         style="stop-opacity:1;stop-color:#dce4f4"
         offset="0.72749221"
         id="stop58518" />
      <stop
         style="stop-opacity:1;stop-color:#ffffff"
         offset="0.823864"
         id="stop58520" />
      <stop
         style="stop-opacity:1;stop-color:#dce4f4"
         offset="0.92806984"
         id="stop58522" />
      <stop
         style="stop-opacity:1;stop-color:#dce4f4"
         offset="1"
         id="stop58524" />
    </radialGradient>
    <clipPath
       clipPathUnits="userSpaceOnUse"
       id="clipPath58536">
      <path
         d="m 369.209,395.683 c 0,-49.892 40.445,-90.335 90.338,-90.335 v 0 c 49.892,0 90.337,40.443 90.337,90.335 v 0 c 0,49.894 -40.445,90.339 -90.337,90.339 v 0 c -49.893,0 -90.338,-40.445 -90.338,-90.339 m 29.111,0 c 0,33.815 27.412,61.227 61.227,61.227 v 0 c 33.813,0 61.226,-27.412 61.226,-61.227 v 0 c 0,-33.814 -27.413,-61.226 -61.226,-61.226 v 0 c -33.815,0 -61.227,27.412 -61.227,61.226"
         id="path58534" />
    </clipPath>
    <radialGradient
       fx="0"
       fy="0"
       cx="0"
       cy="0"
       r="1"
       gradientUnits="userSpaceOnUse"
       gradientTransform="matrix(90.337273,0,0,-90.337273,459.54639,395.68485)"
       spreadMethod="pad"
       id="radialGradient58554">
      <stop
         style="stop-opacity:1;stop-color:#dce4f4"
         offset="0"
         id="stop58542" />
      <stop
         style="stop-opacity:1;stop-color:#dce4f4"
         offset="0.698864"
         id="stop58544" />
      <stop
         style="stop-opacity:1;stop-color:#dce4f4"
         offset="0.72749221"
         id="stop58546" />
      <stop
         style="stop-opacity:1;stop-color:#ffffff"
         offset="0.823864"
         id="stop58548" />
      <stop
         style="stop-opacity:1;stop-color:#dce4f4"
         offset="0.92806984"
         id="stop58550" />
      <stop
         style="stop-opacity:1;stop-color:#dce4f4"
         offset="1"
         id="stop58552" />
    </radialGradient>
    <clipPath
       clipPathUnits="userSpaceOnUse"
       id="clipPath58564">
      <path
         d="M 0,900 H 900 V 0 H 0 Z"
         id="path58562" />
    </clipPath>
    <clipPath
       clipPathUnits="userSpaceOnUse"
       id="clipPath58576">
      <path
         d="m 427.197,482.514 8.669,-33.228 c 7.178,3.41 15.206,5.32 23.681,5.32 v 0 c 8.475,0 16.503,-1.91 23.68,-5.32 v 0 l 8.671,33.228 c -10.031,3.905 -20.941,6.051 -32.351,6.051 v 0 c -11.411,0 -22.321,-2.146 -32.35,-6.051 m 85.952,-63.151 c 3.411,-7.177 5.319,-15.204 5.319,-23.68 v 0 c 0,-8.474 -1.908,-16.503 -5.319,-23.679 v 0 l 33.228,-8.67 c 3.905,10.029 6.051,20.937 6.051,32.349 v 0 c 0,11.413 -2.146,22.321 -6.051,32.352 v 0 z m -146.483,-23.68 c 0,-11.412 2.146,-22.32 6.05,-32.349 v 0 l 33.228,8.67 c -3.409,7.176 -5.319,15.205 -5.319,23.679 v 0 c 0,8.476 1.91,16.503 5.319,23.68 v 0 l -33.228,8.672 c -3.904,-10.031 -6.05,-20.939 -6.05,-32.352 m 92.881,-58.921 c -8.475,0 -16.503,1.91 -23.681,5.32 v 0 l -8.669,-33.228 c 10.029,-3.905 20.939,-6.052 32.35,-6.052 v 0 c 11.41,0 22.32,2.147 32.351,6.052 v 0 l -8.672,33.228 c -7.176,-3.41 -15.204,-5.32 -23.679,-5.32"
         id="path58574" />
    </clipPath>
    <radialGradient
       fx="0"
       fy="0"
       cx="0"
       cy="0"
       r="1"
       gradientUnits="userSpaceOnUse"
       gradientTransform="matrix(92.880966,0,0,-92.880966,459.54684,395.68381)"
       spreadMethod="pad"
       id="radialGradient58594">
      <stop
         style="stop-opacity:1;stop-color:#780000"
         offset="0"
         id="stop58582" />
      <stop
         style="stop-opacity:1;stop-color:#780000"
         offset="0.657622"
         id="stop58584" />
      <stop
         style="stop-opacity:1;stop-color:#ff0000"
         offset="0.71200724"
         id="stop58586" />
      <stop
         style="stop-opacity:1;stop-color:#ff0000"
         offset="0.801304"
         id="stop58588" />
      <stop
         style="stop-opacity:1;stop-color:#ff0000"
         offset="0.83186434"
         id="stop58590" />
      <stop
         style="stop-opacity:1;stop-color:#780000"
         offset="1"
         id="stop58592" />
    </radialGradient>
    <clipPath
       clipPathUnits="userSpaceOnUse"
       id="clipPath58604">
      <path
         d="M 0,900 H 900 V 0 H 0 Z"
         id="path58602" />
    </clipPath>
  </defs>
  <sodipodi:namedview
     id="namedview58482"
     pagecolor="#ffffff"
     bordercolor="#000000"
     borderopacity="0.25"
     inkscape:showpageshadow="2"
     inkscape:pageopacity="0.0"
     inkscape:pagecheckerboard="0"
     inkscape:deskcolor="#d1d1d1"
     showgrid="false"
     inkscape:zoom="0.6975"
     inkscape:cx="600"
     inkscape:cy="600.71685"
     inkscape:window-width="1920"
     inkscape:window-height="1017"
     inkscape:window-x="-8"
     inkscape:window-y="-8"
     inkscape:window-maximized="1"
     inkscape:current-layer="g58488">
    <inkscape:page
       x="0"
       y="0"
       id="page58486"
       width="1200"
       height="1200" />
  </sodipodi:namedview>
  <g
     id="g58488"
     inkscape:groupmode="layer"
     inkscape:label="Page 1"
     transform="matrix(1.3333333,0,0,-1.3333333,0,1200)">
    <g
       id="g58490">
      <g
         id="g58492"
         clip-path="url(#clipPath58496)">
        <g
           id="g58498"
           transform="translate(459.5469,798.394)">
          <path
             d="m 0,0 c -4.751,0 -8.602,3.851 -8.602,8.602 0,4.751 3.851,8.602 8.602,8.602 4.75,0 8.602,-3.851 8.602,-8.602 C 8.602,3.851 4.75,0 0,0 m 158.447,-667.755 h -10.632 l -42.981,453.726 h 59.696 v 44.662 l -39.812,21.425 h -17.859 c 2.309,11.673 4.026,28.983 0.199,48.092 -6.021,30.075 -27.128,70.032 -92.548,93.697 3.719,3.715 6.019,8.85 6.019,14.523 0,11.337 -9.191,20.528 -20.529,20.528 -11.336,0 -20.529,-9.191 -20.529,-20.528 0,-5.672 2.301,-10.806 6.019,-14.523 -65.422,-23.665 -86.528,-63.621 -92.551,-93.697 -3.827,-19.109 -2.106,-36.419 0.202,-48.092 h -17.86 l -39.812,-21.425 v -44.662 h 59.698 l -42.983,-453.726 h -10.632 l -48.316,-26.002 v -52.1 h 413.528 v 52.1 z"
             style="fill:#1d344e;fill-opacity:1;fill-rule:nonzero;stroke:none"
             id="path58500" />
        </g>
      </g>
    </g>
    <g
       id="g58502">
      <g
         id="g58504"
         clip-path="url(#clipPath58508)">
        <g
           id="g58510">
          <g
             id="g58512">
            <path
               d="m 420.375,479.872 c -24.821,0 -45.015,-20.197 -45.015,-45.018 v 0 -78.342 c 0,-24.822 20.194,-45.014 45.015,-45.014 v 0 h 78.343 c 24.822,0 45.015,20.192 45.015,45.014 v 0 78.342 c 0,24.821 -20.193,45.018 -45.015,45.018 v 0 z m -39.299,-123.36 v 78.342 c 0,21.672 17.63,39.301 39.299,39.301 v 0 h 78.343 c 21.67,0 39.299,-17.629 39.299,-39.301 v 0 -78.342 c 0,-21.668 -17.629,-39.299 -39.299,-39.299 v 0 h -78.343 c -21.669,0 -39.299,17.631 -39.299,39.299"
               style="fill:url(#radialGradient58526);stroke:none"
               id="path58528" />
          </g>
        </g>
      </g>
    </g>
    <g
       id="g58530">
      <g
         id="g58532"
         clip-path="url(#clipPath58536)">
        <g
           id="g58538">
          <g
             id="g58540">
            <path
               d="m 369.209,395.683 c 0,-49.892 40.445,-90.335 90.338,-90.335 v 0 c 49.892,0 90.337,40.443 90.337,90.335 v 0 c 0,49.894 -40.445,90.339 -90.337,90.339 v 0 c -49.893,0 -90.338,-40.445 -90.338,-90.339 m 29.111,0 c 0,33.815 27.412,61.227 61.227,61.227 v 0 c 33.813,0 61.226,-27.412 61.226,-61.227 v 0 c 0,-33.814 -27.413,-61.226 -61.226,-61.226 v 0 c -33.815,0 -61.227,27.412 -61.227,61.226"
               style="fill:url(#radialGradient58554);stroke:none"
               id="path58556" />
          </g>
        </g>
      </g>
    </g>
    <g
       id="g58558">
      <g
         id="g58560"
         clip-path="url(#clipPath58564)">
        <g
           id="g58566"
           transform="translate(459.5469,334.457)">
          <path
             d="m 0,0 c -33.814,0 -61.227,27.412 -61.227,61.227 0,33.814 27.413,61.227 61.227,61.227 33.814,0 61.227,-27.413 61.227,-61.227 C 61.227,27.412 33.814,0 0,0 Z m 0,151.565 c -49.893,0 -90.338,-40.446 -90.338,-90.338 0,-49.893 40.445,-90.336 90.338,-90.336 49.892,0 90.337,40.443 90.337,90.336 0,49.892 -40.445,90.338 -90.337,90.338 z"
             style="fill:none;stroke:#231f20;stroke-width:0.348;stroke-linecap:butt;stroke-linejoin:miter;stroke-miterlimit:10;stroke-dasharray:none;stroke-opacity:1"
             id="path58568" />
        </g>
      </g>
    </g>
    <g
       id="g58570">
      <g
         id="g58572"
         clip-path="url(#clipPath58576)">
        <g
           id="g58578">
          <g
             id="g58580">
            <path
               d="m 427.197,482.514 8.669,-33.228 c 7.178,3.41 15.206,5.32 23.681,5.32 v 0 c 8.475,0 16.503,-1.91 23.68,-5.32 v 0 l 8.671,33.228 c -10.031,3.905 -20.941,6.051 -32.351,6.051 v 0 c -11.411,0 -22.321,-2.146 -32.35,-6.051 m 85.952,-63.151 c 3.411,-7.177 5.319,-15.204 5.319,-23.68 v 0 c 0,-8.474 -1.908,-16.503 -5.319,-23.679 v 0 l 33.228,-8.67 c 3.905,10.029 6.051,20.937 6.051,32.349 v 0 c 0,11.413 -2.146,22.321 -6.051,32.352 v 0 z m -146.483,-23.68 c 0,-11.412 2.146,-22.32 6.05,-32.349 v 0 l 33.228,8.67 c -3.409,7.176 -5.319,15.205 -5.319,23.679 v 0 c 0,8.476 1.91,16.503 5.319,23.68 v 0 l -33.228,8.672 c -3.904,-10.031 -6.05,-20.939 -6.05,-32.352 m 92.881,-58.921 c -8.475,0 -16.503,1.91 -23.681,5.32 v 0 l -8.669,-33.228 c 10.029,-3.905 20.939,-6.052 32.35,-6.052 v 0 c 11.41,0 22.32,2.147 32.351,6.052 v 0 l -8.672,33.228 c -7.176,-3.41 -15.204,-5.32 -23.679,-5.32"
               style="fill:url(#radialGradient58594);stroke:none"
               id="path58596" />
          </g>
        </g>
      </g>
    </g>
    <g
       id="g58598">
      <g
         id="g58600"
         clip-path="url(#clipPath58604)">
        <g
           id="g58606"
           transform="translate(492.502,154.6055)">
          <path
             d="m 0,0 v 36.213 h -2.641 l -1.9,3.83 H 0 v 13.162 h 18.063 v -3.91 H 5.177 V 40.043 H 17.43 l 1.901,-3.83 H 5.177 V 3.908 H 18.063 V 0 Z m -23.554,0 v 53.205 h 5.177 V 3.908 H -5.174 V 0 Z m -15.21,44.988 c 0,1.489 -0.46,2.698 -1.374,3.629 -0.916,0.93 -2.324,1.397 -4.225,1.397 -1.972,0 -3.504,-0.467 -4.595,-1.397 -1.093,-0.931 -1.638,-2.168 -1.638,-3.707 v -4.787 h 11.832 z M -38.764,0 V 36.293 H -50.596 V 0 h -5.176 v 36.293 h -2.746 l -1.69,3.83 h 4.436 c 0,4.518 0.423,7.604 1.268,9.252 1.549,3.031 4.823,4.547 9.824,4.547 4.014,0 6.936,-1.012 8.768,-3.029 1.548,-1.704 2.323,-4.123 2.323,-7.262 V 0 Z m -46.477,3.908 h 3.062 c 4.649,0 8.098,0.399 10.353,1.197 3.308,1.168 4.965,3.403 4.965,6.7 0,2.713 -1.358,5.984 -4.068,9.812 -2.711,3.826 -5.37,7.524 -7.974,11.086 -2.889,4.256 -4.331,7.738 -4.331,10.449 0,3.297 1.408,5.797 4.225,7.5 2.816,1.702 6.478,2.553 10.985,2.553 h 3.803 v -3.83 c -4.436,0 -7.466,-0.213 -9.084,-0.637 -3.17,-0.851 -4.754,-2.66 -4.754,-5.425 0,-2.711 1.408,-6.09 4.225,-10.129 2.604,-3.512 5.264,-7.178 7.976,-11.008 2.71,-3.828 4.067,-7.26 4.067,-10.291 0,-3.828 -1.674,-6.768 -5.018,-8.813 C -70.154,1.023 -74.433,0 -79.643,0 h -5.598 z M 15.422,95.369 c 0,4.838 -1.556,8.865 -4.666,12.084 -3.11,3.215 -7.087,5.064 -11.926,5.545 V 78.139 c 4.786,0.529 8.695,2.312 11.726,5.345 3.245,3.188 4.866,7.151 4.866,11.885 M 12.551,63.541 -1.17,75.027 V 63.541 h -3.907 l -0.001,53.203 h 2.872 c 5.956,0 11.034,-2.047 15.235,-6.142 4.199,-4.094 6.302,-9.094 6.302,-14.997 0,-4.732 -1.33,-8.867 -3.988,-12.4 -2.66,-3.539 -6.249,-6.16 -10.769,-7.859 L 18.773,63.541 Z m -73.624,26.563 c 0,-6.543 2.259,-12.073 6.78,-16.592 4.519,-4.52 10.051,-6.78 16.591,-6.78 6.434,0 11.951,2.245 16.551,6.739 4.601,4.494 6.902,9.931 6.902,16.312 0,6.862 -2.288,12.526 -6.862,16.992 -4.574,4.465 -10.289,6.7 -17.149,6.7 -6.329,0 -11.714,-2.301 -16.152,-6.899 -4.442,-4.603 -6.661,-10.092 -6.661,-16.472 m 50.731,-0.081 c 0,-7.498 -2.659,-13.906 -7.976,-19.222 -5.319,-5.321 -11.754,-7.979 -19.303,-7.979 -7.499,0 -13.92,2.617 -19.264,7.858 -5.346,5.238 -8.017,11.605 -8.017,19.103 0,7.766 2.684,14.303 8.056,19.623 5.371,5.317 11.966,7.977 19.782,7.977 7.445,0 13.761,-2.686 18.945,-8.057 5.186,-5.371 7.777,-11.805 7.777,-19.303 m -71.47,-26.482 v 36.213 h -2.074 l -1.356,3.83 h 3.43 v 13.16 h 13.322 v -3.908 h -9.413 v -9.252 h 8.934 l 1.356,-3.83 h -10.29 V 63.541 Z"
             style="fill:#ffffff;fill-opacity:1;fill-rule:nonzero;stroke:none"
             id="path58608" />
        </g>
      </g>
    </g>
  </g>
</svg>
