<?xml version="1.0" encoding="UTF-8" standalone="no"?><!-- Generator: Gravit.io --><svg xmlns="http://www.w3.org/2000/svg" xmlns:xlink="http://www.w3.org/1999/xlink" style="isolation:isolate" viewBox="0 0 800 1200" width="800pt" height="1200pt"><defs><clipPath id="_clipPath_vUdnev1QYVPloKL2UFyUpINKtLKBS5mN"><rect width="800" height="1200"/></clipPath></defs><g clip-path="url(#_clipPath_vUdnev1QYVPloKL2UFyUpINKtLKBS5mN)"><g style="isolation:isolate"/><g style="isolation:isolate"><path d=" M 553.697 675.692 L 543.745 539.983 L 513.889 539.983 L 457.796 498.365 L 441.511 498.365 L 436.082 390.702 L 427.035 324.657 L 416.178 390.702 L 416.178 283.039 L 416.178 237.802 L 408.036 202.518 L 398.988 237.802 L 398.988 198.899 L 366.418 56.856 L 322.991 202.518 L 322.991 237.802 L 317.563 202.518 L 308.515 237.802 L 308.515 254.992 L 308.515 283.039 L 308.515 390.702 L 299.468 324.657 L 284.992 390.702 L 278.659 498.365 L 263.279 498.365 L 204.471 539.983 L 170.996 539.983 L 163.758 675.692 L 148.378 675.692 L 111.284 711.882 L 87.761 711.882 L 57 940.779 L 669.051 948.016 L 637.838 711.882 L 612.505 711.882 L 571.792 675.692 L 560.766 675.692 L 553.697 675.692 Z " fill="rgb(104,116,132)"/><path d=" M 305.025 942.588 L 305.025 816.024 Q 302.268 767.392 358.77 739.024 Q 415.272 767.392 412.515 816.024 L 412.515 942.588 L 305.025 942.588 Z " fill="rgb(159,167,179)"/><path d=" M 322.991 944.398 L 322.991 833.583 Q 321.182 791.004 358.276 766.165 Q 395.37 791.004 393.56 833.583 L 393.56 944.398 L 322.991 944.398 Z " fill="rgb(44,44,64)"/><path d=" M 167.769 941.604 L 172.225 844.604 Q 171.771 805.831 216.68 785.186 Q 259.619 809.667 255.787 848.253 L 251.289 942.588 L 167.769 941.604 Z " fill="rgb(159,167,179)"/><path d=" M 160.004 941.244 L 164.834 836.623 Q 164.105 794.792 217.467 772.74 Q 268.704 799.36 264.33 840.968 L 259.436 942.714 L 160.004 941.244 Z " fill="none" vector-effect="non-scaling-stroke" stroke-width="3" stroke="rgb(159,167,179)" stroke-linejoin="miter" stroke-linecap="square" stroke-miterlimit="3"/><path d=" M 553.697 945.49 L 548.928 838.307 Q 549.657 796.476 496.295 774.424 Q 445.058 801.044 449.431 842.652 L 454.325 944.398 L 553.697 945.49 Z " fill="none" vector-effect="non-scaling-stroke" stroke-width="3" stroke="rgb(159,167,179)" stroke-linejoin="miter" stroke-linecap="square" stroke-miterlimit="3"/><path d=" M 545.588 945.49 L 541.133 848.489 Q 541.586 809.716 496.677 789.071 Q 453.739 813.552 457.571 852.138 L 462.069 946.473 L 545.588 945.49 Z " fill="rgb(159,167,179)"/><path d=" M 186.085 942.588 L 189.858 859.339 Q 189.966 826.085 218.327 807.922 Q 244.997 828.488 242.205 861.625 L 238.432 942.588 L 186.085 942.588 Z " fill="rgb(44,44,64)"/><path d=" M 476.614 946.473 L 474.216 867.046 Q 471.863 833.875 498.803 813.664 Q 526.922 832.2 526.589 865.453 L 528.817 946.473 L 476.614 946.473 Z " fill="rgb(44,44,64)"/><path d=" M 117.617 796.833 Q 103.744 803.468 101.332 816.737 Q 98.919 830.007 94.094 880.069 L 122.141 880.069 L 128.474 816.737 Q 127.871 802.563 117.617 796.833 Z " fill="rgb(44,44,64)"/><path d=" M 117.742 788.603 Q 97.79 797.494 95.152 813.064 Q 92.514 828.635 87.761 885.59 L 128.474 885.59 L 135.08 810.695 Q 133.219 794.34 117.742 788.603 Z " fill="none" vector-effect="non-scaling-stroke" stroke-width="3" stroke="rgb(159,167,179)" stroke-linejoin="miter" stroke-linecap="square" stroke-miterlimit="3"/><path d=" M 602.565 795.479 Q 622.517 804.37 625.155 819.94 Q 627.792 835.511 632.546 892.466 L 591.833 892.466 L 585.226 817.571 Q 587.087 801.216 602.565 795.479 Z " fill="none" vector-effect="non-scaling-stroke" stroke-width="3" stroke="rgb(159,167,179)" stroke-linejoin="miter" stroke-linecap="square" stroke-miterlimit="3"/><path d=" M 602.553 802.355 Q 616.426 808.989 618.838 822.259 Q 621.251 835.528 626.076 885.59 L 598.029 885.59 L 591.696 822.259 Q 592.299 808.085 602.553 802.355 Z " fill="rgb(44,44,64)"/><path d=" M 196.329 727.262 L 207.185 599.695 Q 215.931 574.664 234.327 568.934 Q 251.517 572.855 259.66 599.695 L 252.422 727.262 L 259.66 727.262 L 257.85 744.452 L 252.422 739.024 L 248.803 744.452 L 243.148 744.452 L 239.077 739.024 L 234.554 744.452 L 227.994 744.452 L 224.149 739.024 L 219.625 744.452 L 211.935 744.452 L 206.733 739.024 L 202.662 744.452 L 196.329 744.452 L 192.71 739.024 L 186.085 744.452 Q 186.955 734.378 188.186 727.262 L 196.329 727.262 Z " fill="rgb(159,167,179)"/><path d=" M 313.944 683.835 L 299.468 684.74 L 299.468 785.165 Q 310.325 762.547 313.944 762.547 L 313.944 721.834 L 322.991 721.834 L 322.991 750.785 L 327.515 746.261 L 327.515 721.834 L 334.753 721.834 L 334.753 739.024 L 341.086 735.405 L 341.086 721.834 L 348.323 721.834 L 348.323 730.881 L 351.942 727.262 L 351.942 721.834 L 363.704 721.834 L 363.704 727.262 L 367.323 730.881 L 367.323 721.834 L 375.465 721.834 L 375.465 735.405 L 381.799 739.024 L 381.799 721.834 L 389.036 721.834 L 389.036 745.357 L 394.465 750.785 L 393.56 721.834 L 400.798 721.834 L 402.607 762.547 Q 414.595 775.439 417.988 785.165 L 416.178 684.74 L 403.512 684.74 L 403.512 586.124 Q 400.798 564.41 389.036 560.791 Q 376.144 570.517 377.275 586.124 Q 372.977 571.874 369.132 570.744 Q 360.99 572.779 360.085 586.124 Q 357.371 570.291 351.942 570.744 Q 346.514 571.196 344.705 584.314 Q 342.443 568.029 331.134 560.791 Q 318.421 572.078 317.563 584.314 Q 316.658 597.207 313.944 683.835 Z " fill="rgb(159,167,179)"/><path d=" M 521.127 727.262 L 510.27 599.695 Q 501.525 574.664 483.128 568.934 Q 465.939 572.855 457.796 599.695 L 465.034 727.262 L 457.796 727.262 L 459.605 744.452 L 465.034 739.024 L 468.653 744.452 L 474.307 744.452 L 478.379 739.024 L 482.902 744.452 L 489.462 744.452 L 493.307 739.024 L 497.83 744.452 L 505.521 744.452 L 510.723 739.024 L 514.794 744.452 L 521.127 744.452 L 524.746 739.024 L 531.371 744.452 Q 530.501 734.378 529.27 727.262 L 521.127 727.262 Z " fill="rgb(159,167,179)"/><path d=" M 211.935 718.215 L 219.625 610.552 Q 220.756 597.584 226.185 597.885 Q 231.613 598.187 232.518 610.552 L 224.149 718.215 L 211.935 718.215 Z " fill="rgb(44,44,64)"/><path d=" M 505.521 718.215 L 497.83 610.552 Q 496.699 597.584 491.271 597.885 Q 485.843 598.187 484.938 610.552 L 493.307 718.215 L 505.521 718.215 Z " fill="rgb(44,44,64)"/><path d=" M 228.22 718.215 L 235.911 610.552 Q 237.042 597.584 242.47 597.885 Q 247.898 598.187 248.803 610.552 L 240.434 718.215 L 228.22 718.215 Z " fill="rgb(44,44,64)"/><path d=" M 489.235 718.215 L 481.545 610.552 Q 480.414 597.584 474.986 597.885 Q 469.557 598.187 468.653 610.552 L 477.022 718.215 L 489.235 718.215 Z " fill="rgb(44,44,64)"/><ellipse vector-effect="non-scaling-stroke" cx="362.60043163962547" cy="536.6633791667351" rx="28.15976206019525" ry="26.23720802395701" fill="rgb(159,167,179)"/><ellipse vector-effect="non-scaling-stroke" cx="362.6004316396254" cy="539.9826534339174" rx="21.684186275828324" ry="20.203739823261685" fill="rgb(44,44,64)"/><path d=" M 348.323 684.74 L 371.846 684.74 L 370.037 611.456 Q 367.323 591.552 360.085 591.552 Q 352.847 591.552 350.133 611.456 L 348.323 684.74 Z " fill="rgb(44,44,64)"/><path d=" M 320.277 684.74 L 324.8 586.124 Q 325.253 578.208 327.515 578.886 C 329.776 579.565 330.229 581.374 330.229 586.124 Q 330.229 590.874 327.515 684.74 L 320.277 684.74 Z " fill="rgb(44,44,64)"/><path d=" M 396.657 684.926 L 395.469 586.213 Q 395.285 578.286 393.001 578.888 C 390.718 579.49 390.205 581.283 390.044 586.03 Q 389.884 590.777 389.423 684.681 L 396.657 684.926 Z " fill="rgb(44,44,64)"/><path d=" M 330.229 684.834 L 333.221 586.16 Q 333.55 578.238 335.822 578.881 C 338.094 579.524 338.575 581.326 338.648 586.076 Q 338.722 590.825 337.466 684.722 L 330.229 684.834 Z " fill="rgb(44,44,64)"/><path d=" M 386.707 684.684 L 387.053 585.965 Q 386.991 578.036 384.699 578.602 C 382.406 579.168 381.865 580.953 381.631 585.697 Q 381.397 590.441 379.478 684.327 L 386.707 684.684 Z " fill="rgb(44,44,64)"/><path d=" M 317.563 454.033 L 317.563 462.176 L 322.991 462.176 L 324.8 469.414 L 324.8 492.937 L 327.515 492.937 L 327.515 469.414 L 330.229 462.176 L 339.276 462.176 L 341.086 469.414 L 341.99 489.318 L 344.705 489.318 L 345.609 469.414 L 347.419 462.176 L 357.371 462.176 L 358.276 469.414 L 358.276 485.699 L 361.894 485.699 L 362.799 469.414 L 364.609 462.176 L 373.656 462.176 L 375.465 469.414 L 375.465 489.318 L 378.18 489.318 L 379.989 469.414 L 381.799 462.176 L 390.846 462.176 L 392.655 469.414 L 393.56 492.937 L 396.657 492.937 L 396.657 469.414 L 398.084 462.176 L 402.607 462.176 L 402.607 454.033 L 398.084 454.033 L 398.084 368.084 L 402.607 368.084 L 400.798 352.703 L 395.469 352.703 L 362.799 290.277 L 331.134 352.703 L 324.8 352.703 L 322.991 368.084 L 327.515 368.084 L 322.991 454.033 L 317.563 454.033 Z " fill="rgb(159,167,179)"/><path d=" M 341.99 432.32 L 341.99 372.607 Q 346.175 352.364 362.799 346.37 Q 381.459 357.34 381.799 372.607 Q 382.138 387.875 381.799 432.32 L 341.99 432.32 Z " fill="rgb(44,44,64)"/><path d=" M 204.471 539.983 L 248.803 539.983 Q 284.992 537.721 287.706 558.982 Q 294.492 539.078 313.944 532.745 Q 365.061 469.414 408.036 532.745 Q 435.178 539.53 436.082 558.982 Q 449.591 540.586 476.614 539.983 Q 503.636 539.379 514.794 539.983" fill="none" vector-effect="non-scaling-stroke" stroke-width="5" stroke="rgb(159,167,179)" stroke-linejoin="miter" stroke-linecap="square" stroke-miterlimit="3"/><path d=" M 308.515 290.277 Q 322.688 276.404 337.466 278.515 Q 368.092 261.325 386.707 278.515 Q 407.131 278.817 416.178 290.277" fill="none" vector-effect="non-scaling-stroke" stroke-width="5" stroke="rgb(159,167,179)" stroke-linejoin="miter" stroke-linecap="square" stroke-miterlimit="3"/><line x1="365.513" y1="70.427" x2="366.418" y2="27" vector-effect="non-scaling-stroke" stroke-width="10" stroke="rgb(159,167,179)" stroke-linejoin="miter" stroke-linecap="square" stroke-miterlimit="3"/><line x1="347.419" y1="39.666" x2="383.608" y2="39.666" vector-effect="non-scaling-stroke" stroke-width="10" stroke="rgb(159,167,179)" stroke-linejoin="miter" stroke-linecap="square" stroke-miterlimit="3"/><path d=" M 671.709 1015.678 L 640.507 989.038 C 630.4 980.408 611.77 976.189 598.93 979.623 L 559.296 990.223 C 546.457 993.657 540.161 986.475 545.245 974.196 L 560.939 936.289 C 566.024 924.01 564.279 904.988 557.045 893.838 L 534.716 859.42 C 527.483 848.27 532.367 840.062 545.617 841.103 L 586.518 844.316 C 599.768 845.356 617.32 837.819 625.689 827.494 L 651.522 795.622 C 659.891 785.297 669.206 787.406 672.311 800.329 L 681.895 840.221 C 684.999 853.144 697.592 867.507 709.997 872.276 L 748.292 886.996 C 760.698 891.765 761.571 901.276 750.24 908.222 L 715.262 929.664 C 703.931 936.61 694.162 953.025 693.46 966.297 L 691.294 1007.267 C 690.592 1020.539 681.816 1024.308 671.709 1015.678 Z " fill="rgb(236,205,51)"/></g></g></svg>